<?xml version="1.0" standalone="no"?>
<!DOCTYPE svg PUBLIC "-//W3C//DTD SVG 20010904//EN"
 "http://www.w3.org/TR/2001/REC-SVG-20010904/DTD/svg10.dtd">
<svg version="1.0" xmlns="http://www.w3.org/2000/svg"
 width="512.000000pt" height="512.000000pt" viewBox="0 0 512.000000 512.000000"
 preserveAspectRatio="xMidYMid meet">
<metadata>
Created by potrace 1.14, written by Peter Selinger 2001-2017
</metadata>
<g transform="translate(0.000000,512.000000) scale(0.100000,-0.100000)"
fill="#000000" stroke="none">
<path d="M0 2560 l0 -2560 2560 0 2560 0 0 2560 0 2560 -2560 0 -2560 0 0
-2560z m3160 1830 l25 -8 -25 -1 c-14 0 -32 4 -40 9 -13 9 -13 10 0 9 8 -1 26
-5 40 -9z m-1295 -142 c-78 -49 -104 -64 -133 -73 -18 -5 -13 3 20 33 43 40
62 49 108 51 23 1 24 0 5 -11z m1745 -92 c24 -16 40 -38 51 -70 9 -25 13 -46
8 -46 -5 0 -9 7 -9 14 0 8 -21 33 -47 55 -27 22 -59 50 -73 61 l-25 21 30 -6
c17 -3 46 -17 65 -29z m-1965 -82 c-34 -26 -55 -36 -55 -25 0 11 48 40 65 40
6 0 1 -7 -10 -15z m-105 -98 c0 -2 -8 -10 -17 -17 -16 -13 -17 -12 -4 4 13 16
21 21 21 13z m-80 -141 c-35 -35 -65 -63 -67 -61 -11 11 35 76 70 99 67 43 66
32 -3 -38z m797 -66 c37 -11 124 -50 193 -86 118 -63 129 -66 195 -67 68 0 74
2 180 61 135 75 223 103 340 110 255 14 510 -144 586 -364 36 -105 20 -291
-56 -669 -3 -11 -17 -26 -31 -33 l-27 -12 50 -52 c86 -88 126 -172 92 -193 -6
-3 -54 14 -108 39 -53 26 -134 56 -181 67 -47 12 -94 24 -105 27 -12 3 8 -23
48 -63 115 -115 137 -192 67 -226 -50 -24 -206 -53 -420 -78 -432 -52 -998
-10 -1262 92 -70 26 -78 32 -78 55 0 42 44 106 122 178 40 37 64 65 53 61 -11
-4 -69 -21 -130 -37 -60 -16 -144 -46 -186 -68 -89 -45 -109 -42 -109 19 0 39
40 101 103 159 l26 24 -24 29 c-14 16 -25 40 -25 52 0 13 -11 81 -24 152 -29
155 -51 388 -42 438 11 57 72 166 124 219 101 104 214 161 382 191 48 9 180
-5 247 -25z m-843 -49 c-22 -33 -29 -38 -42 -28 -12 11 -10 16 19 40 46 39 54
35 23 -12z m-68 -187 c-15 -27 -15 -27 -16 -5 0 13 5 33 12 45 10 19 13 19 16
5 2 -9 -4 -29 -12 -45z m-91 -82 c22 -10 46 -16 54 -13 9 3 11 -1 7 -14 -5
-17 -25 -147 -26 -166 0 -19 -40 -6 -62 20 -91 107 -164 108 -218 3 -21 -42
-24 -169 -6 -261 20 -95 37 -135 67 -151 13 -7 19 -7 15 -1 -9 16 10 24 22 9
6 -6 20 -41 32 -76 12 -36 41 -90 66 -122 49 -64 72 -115 57 -130 -16 -16 -91
31 -150 95 -138 147 -208 375 -173 562 16 86 47 148 98 197 66 64 144 82 217
48z m2938 -5 c31 -12 97 -78 97 -95 0 -5 -18 -2 -41 5 -36 13 -44 13 -84 -5
-24 -11 -63 -38 -88 -60 -70 -65 -80 -59 -92 57 -4 34 -11 65 -16 68 -17 10
-9 25 9 19 11 -3 34 1 53 9 43 19 120 20 162 2z m158 -260 c21 -127 -4 -267
-72 -394 -91 -172 -201 -273 -261 -241 -28 15 -22 39 21 84 22 22 65 89 96
148 44 83 60 105 70 97 19 -16 42 27 71 135 23 86 29 133 33 250 2 40 2 40 16
15 7 -14 19 -56 26 -94z m-3056 -281 c-17 -59 -40 -73 -51 -30 -10 40 4 86 34
118 l27 29 3 -31 c2 -17 -4 -56 -13 -86z m2744 61 c28 -56 21 -99 -17 -104
-27 -4 -42 29 -42 97 0 78 22 81 59 7z m-1619 -806 c113 -6 210 -12 215 -14 6
-2 51 0 100 4 99 9 425 23 494 22 24 -1 54 -8 68 -18 23 -14 25 -20 19 -57 -4
-23 -10 -45 -14 -49 -13 -13 -187 -21 -209 -10 -15 8 -23 8 -32 -1 -19 -19
-732 -17 -754 2 -14 11 -20 11 -32 1 -12 -10 -38 -10 -122 -1 -104 11 -153 28
-153 54 0 6 -3 21 -6 33 -3 13 1 28 12 39 16 15 31 17 113 12 53 -3 188 -11
301 -17z m-616 -27 c13 -21 48 -94 77 -163 28 -69 72 -156 97 -195 50 -79 144
-190 174 -206 18 -10 17 -7 -4 31 -13 23 -31 56 -40 73 -22 40 -23 91 -2 111
8 9 17 16 20 16 2 0 39 -34 82 -76 101 -101 169 -154 195 -154 20 0 20 1 -5
28 -43 46 -98 135 -98 159 0 25 4 25 135 -7 44 -10 96 -22 115 -25 38 -7 43
-9 80 -19 16 -4 55 1 100 13 129 34 211 44 242 29 24 -11 10 -46 -47 -120
l-45 -57 33 5 c24 4 57 31 126 101 69 70 97 91 105 83 6 -6 11 -44 11 -87 -1
-73 -2 -76 -35 -104 -44 -36 -33 -37 24 -1 84 52 153 154 247 363 69 153 84
179 104 179 25 0 18 -60 -26 -201 -46 -150 -75 -213 -148 -317 -131 -185 -361
-285 -656 -286 -270 0 -489 77 -635 223 -62 62 -162 214 -190 289 -28 72 -68
231 -76 300 -8 63 5 68 40 15z m2143 -105 c-3 -8 -6 -5 -6 6 -1 11 2 17 5 13
3 -3 4 -12 1 -19z m-2432 -335 c5 -18 3 -22 -9 -17 -9 3 -16 18 -16 32 0 29
14 20 25 -15z m-396 -297 c-2 -2 -15 -9 -29 -15 -24 -11 -24 -11 -6 3 16 13
49 24 35 12z m2946 -6 c7 -12 -12 -12 -40 0 -18 8 -17 9 7 9 15 1 30 -3 33 -9z
m-3085 -84 c0 -2 -8 -10 -17 -17 -16 -13 -17 -12 -4 4 13 16 21 21 21 13z
m3275 -77 c12 -19 -5 -23 -22 -6 -16 16 -16 17 -1 17 9 0 20 -5 23 -11z
m-3335 -44 c-7 -8 -18 -15 -24 -15 -6 0 -2 7 8 15 25 19 32 19 16 0z m-107
-272 c-10 -21 -24 -47 -31 -58 l-14 -20 7 20 c4 11 13 34 19 50 9 25 23 44 33
45 2 0 -5 -17 -14 -37z m862 -194 c-3 -3 6 -9 20 -11 16 -4 22 -1 18 6 -4 6 1
5 10 -3 9 -7 17 -10 17 -5 0 5 4 4 8 -1 7 -11 392 -204 534 -269 93 -42 189
-103 282 -179 38 -32 73 -57 78 -57 11 0 49 39 89 89 25 33 127 103 168 116
14 4 110 48 213 96 104 49 191 89 195 89 3 0 46 16 95 35 49 19 106 37 128 40
45 6 48 2 136 -145 25 -41 59 -96 75 -122 24 -36 33 -64 39 -118 4 -40 13 -77
19 -83 6 -6 11 -15 11 -19 0 -4 -538 -8 -1195 -8 l-1194 0 19 43 c11 23 20 59
20 80 0 40 28 104 55 127 27 23 85 136 85 167 0 41 29 123 43 120 7 -1 11 3
10 9 -1 6 4 11 12 11 8 0 12 -4 10 -8z m-944 -90 c-10 -23 -10 -23 -10 7 -1
17 2 34 7 38 11 12 14 -18 3 -45z m4 -209 c-4 -12 -9 -19 -12 -17 -3 3 -2 15
2 27 4 12 9 19 12 17 3 -3 2 -15 -2 -27z m3775 -209 c0 -10 -9 -11 -129 -16
-111 -5 -163 7 -71 15 91 8 200 9 200 1z"/>
<path d="M1930 3588 c-162 -57 -282 -181 -297 -307 -9 -81 37 -95 134 -41 32
18 72 41 90 51 49 28 47 8 -4 -52 -54 -63 -79 -118 -92 -197 -10 -65 2 -108
13 -47 25 130 105 236 220 291 186 89 366 5 431 -200 11 -35 13 -37 14 -14 1
14 -4 49 -10 76 -18 74 -11 84 47 66 66 -20 287 -19 344 1 23 8 46 13 51 10 4
-3 2 -22 -5 -43 -8 -20 -16 -57 -20 -82 l-6 -45 14 37 c78 202 267 286 448
198 106 -51 171 -130 213 -258 9 -29 19 -51 22 -48 10 9 -18 127 -43 184 -13
30 -22 58 -19 62 2 4 23 4 45 0 21 -4 42 -4 46 -1 3 3 10 7 15 7 5 1 13 2 18
3 21 3 28 56 14 103 -32 109 -179 219 -340 254 -79 17 -87 17 -165 0 -86 -19
-104 -26 -290 -124 -174 -91 -211 -88 -416 36 -116 71 -186 93 -307 98 -86 4
-109 1 -165 -18z"/>
<path d="M3102 3226 c-94 -31 -152 -105 -152 -196 0 -113 92 -203 205 -199
l30 1 -30 7 c-57 14 -129 61 -93 61 7 0 28 -4 46 -9 57 -17 99 -3 162 55 32
30 61 54 65 54 8 0 2 -54 -9 -85 -4 -11 4 -2 18 20 30 47 35 115 11 173 -41
97 -154 150 -253 118z m36 -62 c41 -29 19 -94 -33 -94 -27 0 -55 24 -55 48 0
18 38 62 55 62 6 0 21 -7 33 -16z"/>
<path d="M2065 3211 c-73 -34 -135 -120 -135 -187 0 -73 49 -153 108 -175 36
-14 39 -3 8 22 -37 29 -17 40 42 23 65 -20 116 -4 170 53 l42 46 0 -39 c0 -36
1 -37 17 -22 21 22 29 115 13 162 -36 110 -161 165 -265 117z m66 -41 c29 -16
25 -65 -6 -86 -60 -39 -115 26 -61 73 30 26 39 27 67 13z"/>
<path d="M2292 2724 c-17 -12 -22 -24 -20 -47 2 -25 13 -39 50 -64 46 -30 219
-103 246 -103 33 0 -4 94 -60 148 -76 75 -165 102 -216 66z"/>
<path d="M2892 2730 c-59 -24 -115 -74 -138 -124 -45 -97 -31 -104 99 -54 123
47 177 86 177 128 0 6 -12 22 -26 35 -28 26 -70 31 -112 15z"/>
<path d="M2455 1555 c17 -8 37 -14 45 -14 8 0 -1 7 -20 14 -46 18 -64 17 -25
0z"/>
<path d="M2250 1522 c0 -12 19 -26 26 -19 2 2 -2 10 -11 17 -9 8 -15 8 -15 2z"/>
<path d="M2490 1455 c0 -8 7 -15 16 -15 14 0 14 3 4 15 -7 8 -14 15 -16 15 -2
0 -4 -7 -4 -15z"/>
<path d="M2795 1450 c-17 -7 -15 -9 13 -9 17 -1 32 4 32 9 0 12 -17 12 -45 0z"/>
</g>
</svg>
